<?xml version="1.0" encoding="UTF-8"?> <svg xmlns="http://www.w3.org/2000/svg" width="648" height="487" viewBox="0 0 648 487" fill="none"> <g clip-path="url(#clip0_102_845)"> <path d="M594.329 214.6L567.312 219.305L400.297 122.952C391.905 118.042 377.373 118.656 367.548 124.384L48.0503 308.703L0.15625 316.886V333.865C0.15625 336.934 1.9983 340.002 5.88713 342.048L194.393 450.88C202.785 455.79 217.317 455.176 227.141 449.448L586.551 242.013C591.668 238.944 594.533 235.262 594.533 231.579V214.6H594.329Z" fill="url(#paint0_linear_102_845)"></path> <path d="M194.94 432.397L194.948 432.401C198.82 434.667 204.292 435.719 210.046 435.496C215.784 435.273 221.626 433.788 226.189 431.169L194.94 432.397ZM194.94 432.397L6.4418 323.569C6.44082 323.569 6.43983 323.568 6.43884 323.568C2.59118 321.315 1.228 318.497 1.54499 315.863C1.87541 313.118 4.08826 309.982 8.68263 307.344L8.68467 307.343L368.297 100.113C372.86 97.4934 378.705 96.0069 384.449 95.7594C390.204 95.5115 395.679 96.5136 399.556 98.684C399.559 98.6857 399.562 98.6873 399.565 98.6889L588.047 207.507C588.048 207.508 588.049 207.508 588.05 207.509C591.897 209.761 593.261 212.58 592.944 215.213C592.613 217.959 590.4 221.094 585.806 223.732L585.803 223.734L226.191 431.168L194.94 432.397Z" fill="url(#paint1_linear_102_845)" stroke="white" stroke-width="3"></path> <path d="M542.342 212.145C539.477 213.782 534.974 213.782 532.313 212.145C529.448 210.509 529.448 207.849 532.313 206.417C535.179 204.781 539.682 204.781 542.342 206.417C545.003 208.054 545.208 210.509 542.342 212.145Z" fill="#364FF5"></path> <path d="M504.068 184.323L523.717 195.575C526.173 197.007 525.764 199.462 523.103 200.894C520.238 202.53 516.144 202.735 513.688 201.303L494.039 190.051C491.583 188.619 491.992 186.164 494.653 184.732C497.519 183.096 501.612 182.891 504.068 184.323Z" fill="#364FF5"></path> <path d="M391.906 116.201L411.555 127.453C414.011 128.885 413.602 131.34 410.941 132.772C408.075 134.408 403.982 134.613 401.526 133.181L381.877 121.929C379.421 120.497 379.83 118.042 382.491 116.61C385.356 114.974 389.45 114.769 391.906 116.201Z" fill="#364FF5"></path> <path d="M311.675 136.454C324.978 117.838 328.049 85.9246 318.429 65.2628C313.721 54.8297 306.762 49.3063 299.189 48.488L291.412 47.8743L292.844 49.1017C287.318 50.5337 281.997 54.6251 277.289 61.376C263.985 79.992 260.915 111.905 270.535 132.567C273.81 139.727 278.108 144.637 282.815 147.091L281.587 148.523L289.57 149.137H289.979C297.552 149.751 305.125 145.455 311.675 136.454Z" fill="white"></path> <path d="M315.724 100.899C318.391 73.1208 307.509 49.3479 291.419 47.801C275.329 46.2541 260.124 67.5188 257.457 95.2973C254.791 123.076 265.672 146.849 281.763 148.396C297.853 149.943 313.058 128.678 315.724 100.899Z" fill="url(#paint2_linear_102_845)"></path> <g opacity="0.1"> <path d="M323.752 286.609C323.752 263.697 307.787 236.08 287.933 224.624C278.109 218.896 269.103 218.282 262.554 222.169L255.799 226.056L257.846 226.261C254.367 230.557 252.115 237.103 252.115 245.286C252.115 268.198 268.08 295.815 287.933 307.271C294.688 311.158 301.033 312.59 306.559 311.976L306.354 313.817L313.313 309.726L313.518 309.521C319.863 305.634 323.752 297.861 323.752 286.609Z" fill="#9FFFF8"></path> <path d="M306.395 313.596C320.394 305.517 320.425 279.378 306.465 255.211C292.504 231.044 269.839 218.001 255.841 226.079C241.842 234.157 241.811 260.297 255.772 284.464C269.732 308.631 292.397 321.674 306.395 313.596Z" fill="#343FF5"></path> </g> <path opacity="0.4" d="M283.429 323.841C258.664 323.841 234.103 318.318 215.273 307.475C197.056 296.838 187.027 282.927 187.027 267.993C187.027 253.059 197.056 238.944 215.273 228.511C252.933 206.826 314.131 206.826 351.586 228.511C369.802 239.148 379.832 253.059 379.832 267.993C379.832 282.927 369.802 297.042 351.586 307.475C332.756 318.318 308.195 323.841 283.429 323.841ZM283.429 212.759C258.868 212.759 234.307 218.078 215.682 228.92C197.67 239.353 187.641 253.059 187.641 267.788C187.641 282.518 197.67 296.224 215.682 306.657C253.137 328.342 313.926 328.342 351.382 306.657C369.393 296.224 379.422 282.518 379.422 267.788C379.422 253.059 369.393 239.353 351.382 228.92C332.552 218.282 307.99 212.759 283.429 212.759Z" fill="#2C8DF7"></path> <path opacity="0.2" d="M283.429 338.775C252.113 338.775 220.798 331.819 196.851 318.113C173.723 304.816 160.828 287.018 160.828 267.993C160.828 248.968 173.518 231.17 196.851 217.873C244.54 190.256 322.112 190.256 369.802 217.873C392.93 231.17 405.824 248.968 405.824 267.993C405.824 287.018 393.135 304.816 369.802 318.113C346.059 331.819 314.744 338.775 283.429 338.775ZM283.429 197.825C252.318 197.825 221.003 204.576 197.26 218.487C174.337 231.784 161.647 249.377 161.647 267.993C161.647 286.609 174.337 304.202 197.26 317.499C244.745 344.912 322.112 344.912 369.597 317.499C392.521 304.202 405.21 286.609 405.21 267.993C405.21 249.377 392.521 231.784 369.597 218.487C345.855 204.78 314.744 197.825 283.429 197.825Z" fill="#2C8DF7"></path> <path d="M283.428 311.976C263.984 311.976 244.54 307.68 229.599 299.088C215.271 290.701 207.289 279.654 207.289 267.789C207.289 255.923 215.271 244.877 229.599 236.489C259.277 219.305 307.375 219.305 337.053 236.489C351.381 244.877 359.363 255.923 359.363 267.789C359.363 279.654 351.381 290.701 337.053 299.088C322.317 307.68 302.872 311.976 283.428 311.976ZM283.428 224.624C264.189 224.624 244.745 228.92 230.008 237.307C215.885 245.49 207.903 256.332 207.903 267.993C207.903 279.654 215.681 290.496 230.008 298.679C259.481 315.658 307.375 315.658 336.849 298.679C350.971 290.496 358.954 279.654 358.954 267.993C358.954 256.332 351.176 245.49 336.849 237.307C322.112 228.92 302.872 224.624 283.428 224.624Z" fill="#2C8DF7"></path> <mask id="mask0_102_845" style="mask-type:luminance" maskUnits="userSpaceOnUse" x="227" y="139" width="113" height="152"> <path d="M339.51 277.608L316.996 290.496L227.348 238.739V139.318L339.51 203.962V277.608Z" fill="white"></path> </mask> <g mask="url(#mask0_102_845)"> <path d="M323.752 286.609C323.752 263.697 307.787 236.08 287.934 224.624C278.109 218.896 269.103 218.283 262.554 222.169L255.799 226.056L257.846 226.261C254.367 230.557 252.115 237.103 252.115 245.286C252.115 268.198 268.08 295.815 287.934 307.271C294.688 311.158 301.033 312.59 306.559 311.976L306.354 313.817L313.313 309.726L313.518 309.521C319.863 305.635 323.752 297.861 323.752 286.609Z" fill="white"></path> <path d="M305.901 313.143C319.9 305.065 319.931 278.925 305.971 254.758C292.01 230.591 269.345 217.549 255.347 225.627C241.348 233.705 241.317 259.845 255.277 284.012C269.238 308.179 291.903 321.221 305.901 313.143Z" fill="url(#paint3_linear_102_845)"></path> </g> <path d="M196.647 372.324C193.372 372.324 190.098 371.506 187.232 369.87L74.6608 305.02C73.0234 303.998 72 302.361 72 300.315C72 298.27 73.0234 296.633 74.6608 295.61L91.8535 285.586C97.7891 282.313 104.953 282.313 110.888 285.586L223.255 350.435C224.892 351.458 225.916 353.095 225.916 355.141C225.916 357.186 224.892 358.823 223.255 359.846L206.062 369.87C203.197 371.506 199.922 372.324 196.647 372.324ZM101.269 283.95C98.1984 283.95 94.9236 284.768 92.2628 286.404L75.0701 296.428C73.6374 297.247 72.8187 298.679 72.8187 300.315C72.8187 301.952 73.6374 303.384 75.0701 304.202L187.437 369.051C192.963 372.325 199.922 372.325 205.653 369.051L222.846 359.027C224.278 358.209 225.097 356.777 225.097 355.141C225.097 353.504 224.278 352.072 222.846 351.254L110.479 286.404C107.613 284.768 104.543 283.95 101.269 283.95Z" fill="#364FF5"></path> <path d="M101.269 283.95C98.1984 283.95 94.9236 284.768 92.2628 286.404L75.0701 296.428C73.6374 297.247 72.8187 298.679 72.8187 300.315C72.8187 301.952 73.6374 303.384 75.0701 304.202L187.437 369.051C192.963 372.325 199.922 372.325 205.653 369.051L222.846 359.027C224.278 358.209 225.097 356.777 225.097 355.141C225.097 353.504 224.278 352.072 222.846 351.254L110.479 286.404C107.613 284.768 104.543 283.95 101.269 283.95Z" fill="#364FF5"></path> <path d="M132.036 318.412C131.49 318.733 130.813 318.735 130.265 318.418L115.746 310.008C114.582 309.333 114.576 307.654 115.736 306.972C116.282 306.651 116.959 306.649 117.507 306.967L132.026 315.377C133.19 316.051 133.196 317.73 132.036 318.412Z" fill="white"></path> <path d="M182.618 348.497C182.053 348.81 181.364 348.801 180.808 348.471L178.908 347.346C177.699 346.63 177.724 344.873 178.952 344.191C179.517 343.877 180.206 343.887 180.762 344.216L182.662 345.342C183.871 346.057 183.846 347.815 182.618 348.497Z" fill="white"></path> <path d="M142.254 324.586C141.714 324.886 141.058 324.886 140.518 324.586L138.676 323.563C137.449 322.882 137.449 321.118 138.676 320.436C139.216 320.136 139.872 320.136 140.412 320.436L142.254 321.459C143.481 322.14 143.481 323.905 142.254 324.586Z" fill="white"></path> <path d="M395.386 235.057C395.386 212.145 379.422 184.528 359.568 173.072C349.744 167.344 340.738 166.73 334.188 170.617L327.434 174.504L329.481 174.708C326.001 179.004 323.75 185.551 323.75 193.734C323.75 216.646 339.715 244.263 359.568 255.719C366.322 259.606 372.667 261.038 378.194 260.424L377.989 262.265L384.948 258.174L385.153 257.969C391.498 254.082 395.386 246.104 395.386 235.057Z" fill="white"></path> <path d="M378.04 262.017C392.039 253.939 392.07 227.799 378.109 203.632C364.149 179.465 341.484 166.423 327.485 174.501C313.487 182.579 313.456 208.719 327.416 232.886C341.376 257.053 364.042 270.095 378.04 262.017Z" fill="url(#paint4_linear_102_845)"></path> <path opacity="0.4" d="M647.678 396.868V382.957L645.222 381.525C644.608 385.821 639.491 388.685 635.193 389.299L606.129 406.279L593.439 410.779L553.118 389.913L554.142 389.299C550.662 387.663 548.82 383.98 546.978 380.707L544.317 382.344L542.68 382.753V396.868C542.68 398.709 543.908 400.551 546.159 401.778L586.685 425.099C591.392 427.759 599.17 427.759 603.878 425.099L644.403 401.778C646.655 400.346 647.883 398.709 647.883 396.868C647.678 397.073 647.678 396.868 647.678 396.868Z" fill="#364FF5"></path> <path d="M647.678 384.594V375.388L645.222 373.956C644.608 378.252 639.491 381.116 635.193 381.73L606.129 398.709L593.439 403.21L553.118 382.344L554.142 381.73C550.662 380.093 548.82 376.411 546.978 373.138L544.317 374.774L542.68 375.184V384.594C542.68 386.435 543.908 388.276 546.159 389.504L586.685 412.825C591.392 415.484 599.17 415.484 603.878 412.825L644.403 389.504C646.655 388.072 647.883 386.435 647.883 384.594C647.678 384.594 647.678 384.594 647.678 384.594Z" fill="url(#paint5_linear_102_845)"></path> <path opacity="0.3" d="M634.988 381.73L605.924 398.709L594.871 402.596V415.075C597.941 415.075 601.012 414.461 603.468 413.029L643.993 389.708C646.245 388.276 647.473 386.64 647.473 384.798V384.594V375.388L645.221 374.161H645.017C644.198 378.252 639.286 381.116 634.988 381.73Z" fill="#0F054C"></path> <path d="M586.48 403.619L545.954 380.298C541.247 377.639 541.247 373.138 545.954 370.274L586.48 346.953C591.188 344.293 598.965 344.293 603.673 346.953L644.199 370.274C648.906 372.933 648.906 377.434 644.199 380.298L603.673 403.619C598.965 406.483 591.188 406.483 586.48 403.619Z" fill="url(#paint6_linear_102_845)"></path> <path opacity="0.4" d="M445.051 455.82V441.909L442.595 440.477C441.776 444.773 436.864 447.637 432.566 448.251L403.502 465.23L390.812 469.731L350.491 448.865L351.515 448.251C348.035 446.615 346.193 442.932 344.351 439.659L341.69 441.296L340.053 441.705V455.82C340.053 457.661 341.281 459.503 343.532 460.73L384.058 484.051C388.765 486.711 396.543 486.711 401.251 484.051L441.776 460.73C444.028 459.298 445.256 457.661 445.256 455.82C445.051 455.82 445.051 455.82 445.051 455.82Z" fill="#364FF5"></path> <path d="M445.051 443.341V434.136L442.595 432.704C441.776 437 436.864 439.864 432.566 440.477L403.502 457.457L390.812 461.957L350.491 441.091L351.515 440.477C348.035 438.841 346.193 435.159 344.351 431.885L341.69 433.522L340.053 433.931V443.341C340.053 445.183 341.281 447.024 343.532 448.251L384.058 471.572C388.765 474.232 396.543 474.232 401.251 471.572L441.776 448.251C444.028 446.819 445.256 445.183 445.256 443.341C445.051 443.546 445.051 443.546 445.051 443.341Z" fill="url(#paint7_linear_102_845)"></path> <path opacity="0.3" d="M432.566 440.682L403.502 457.661L392.449 461.548V474.027C395.519 474.027 398.589 473.413 401.046 471.981L441.571 448.66C443.823 447.228 445.051 445.592 445.051 443.75V443.546V434.34L442.799 433.113H442.595C441.776 437.204 436.659 440.068 432.566 440.682Z" fill="#364FF5"></path> <path d="M383.853 462.571L343.328 439.25C338.62 436.59 338.62 432.09 343.328 429.226L383.853 405.905C388.561 403.245 396.338 403.245 401.046 405.905L441.572 429.226C446.279 431.885 446.279 436.386 441.572 439.25L401.046 462.571C396.338 465.23 388.561 465.23 383.853 462.571Z" fill="url(#paint8_linear_102_845)"></path> <path opacity="0.4" d="M135.049 165.907V151.997L132.593 150.565C131.979 154.861 126.862 157.725 122.564 158.338L93.5001 175.318L80.8103 179.818L40.4892 158.952L41.5126 158.338C38.0331 156.702 36.1911 153.019 34.349 149.746L31.6882 151.383L30.0508 151.792V165.907C30.0508 167.749 31.2789 169.59 33.5303 170.817L74.056 194.138C78.7635 196.798 86.5412 196.798 91.2488 194.138L131.774 170.817C134.026 169.385 135.254 167.749 135.254 165.907C135.049 166.112 135.049 165.907 135.049 165.907Z" fill="#364FF5"></path> <path d="M135.049 153.633V144.427L132.593 142.995C131.979 147.291 126.862 150.155 122.564 150.769L93.5001 167.749L80.8103 172.249L40.4892 151.383L41.5126 150.769C38.0331 149.133 36.1911 145.45 34.349 142.177L31.6882 143.814L30.0508 144.223V153.633C30.0508 155.474 31.2789 157.315 33.5303 158.543L74.056 181.864C78.7635 184.523 86.5412 184.523 91.2488 181.864L131.774 158.543C134.026 157.111 135.254 155.474 135.254 153.633C135.049 153.838 135.049 153.633 135.049 153.633Z" fill="url(#paint9_linear_102_845)"></path> <path opacity="0.3" d="M122.566 150.769L93.5017 167.749L82.4492 171.636V184.114C85.5193 184.114 88.5895 183.501 91.0456 182.069L131.571 158.747C133.823 157.315 135.051 155.679 135.051 153.838V153.633V144.427L132.799 143.2H132.595C131.776 147.496 126.659 150.155 122.566 150.769Z" fill="#364FF5"></path> <path d="M41.3101 150.974L79.7891 128.88C81.2218 128.062 83.6779 128.062 85.3153 128.88L122.976 150.565L122.566 150.769C126.864 150.155 131.981 147.292 132.595 142.996L90.2276 119.47L77.9471 116.197L67.9179 122.129L34.1465 142.177C35.9886 145.655 38.0353 149.337 41.3101 150.974Z" fill="url(#paint10_linear_102_845)"></path> <path opacity="0.3" d="M82.4499 117.424L77.9471 116.197L67.9179 122.129L34.1465 142.177C35.9886 145.45 37.8306 149.133 41.3101 150.769L79.7891 128.88C80.6078 128.471 81.6312 128.266 82.4499 128.266V117.424Z" fill="#0F054C"></path> <path d="M73.8517 172.658L33.5307 149.337C28.8231 146.678 28.8231 142.177 33.5307 139.313L74.0563 115.992C78.7639 113.333 86.5416 113.333 91.2491 115.992L131.775 139.313C136.482 141.973 136.482 146.473 131.775 149.133L91.2491 172.454C86.3369 175.522 78.5592 175.522 73.8517 172.658ZM85.3135 119.47C83.8808 118.651 81.4247 118.651 79.7873 119.47L39.2615 142.791C37.8288 143.609 37.8288 145.041 39.2615 146.064L79.7873 169.385C81.22 170.203 83.6761 170.203 85.3135 169.385L125.839 146.064C127.272 145.246 127.272 143.814 125.839 142.791L85.3135 119.47Z" fill="url(#paint11_linear_102_845)"></path> <path d="M125.84 142.791L85.3142 119.47C83.8815 118.652 81.4254 118.652 79.788 119.47L39.2623 142.791C38.2389 143.405 37.8295 144.223 38.2389 145.041C38.4436 144.632 38.6482 144.223 39.2623 144.018L79.788 120.697C81.2207 119.879 83.6768 119.879 85.3142 120.697L125.84 144.018C126.249 144.223 126.659 144.632 126.863 145.041C127.068 144.223 126.863 143.405 125.84 142.791Z" fill="white"></path> <path opacity="0.4" d="M85.3139 119.47C83.8812 118.652 81.4251 118.652 79.7877 119.47L39.2619 142.791C37.8292 143.609 37.8292 145.041 39.2619 146.064L79.7877 169.385C81.2204 170.204 83.6765 170.204 85.3139 169.385L125.84 146.064C127.272 145.246 127.272 143.814 125.84 142.791L85.3139 119.47Z" fill="#343FF5"></path> <path opacity="0.5" d="M126.864 144.427V0H38.0352V144.223C38.0352 144.837 38.4445 145.45 39.2632 145.859L79.7889 169.181C81.2216 169.999 83.6777 169.999 85.3151 169.181L125.841 145.859C126.455 145.655 126.864 145.041 126.864 144.427Z" fill="url(#paint12_linear_102_845)"></path> </g> <defs> <linearGradient id="paint0_linear_102_845" x1="594.768" y1="325.552" x2="-135.872" y2="271.934" gradientUnits="userSpaceOnUse"> <stop stop-color="#374CF5"></stop> <stop offset="1" stop-color="#24BDF9"></stop> </linearGradient> <linearGradient id="paint1_linear_102_845" x1="-0.299266" y1="265.547" x2="594.023" y2="265.547" gradientUnits="userSpaceOnUse"> <stop stop-color="#E9F1FD"></stop> <stop offset="1" stop-color="#BFD2F6"></stop> </linearGradient> <linearGradient id="paint2_linear_102_845" x1="261.718" y1="119.219" x2="318.018" y2="123.215" gradientUnits="userSpaceOnUse"> <stop stop-color="#374CF5"></stop> <stop offset="1" stop-color="#24BDF9"></stop> </linearGradient> <linearGradient id="paint3_linear_102_845" x1="249.243" y1="242.16" x2="303.922" y2="322.548" gradientUnits="userSpaceOnUse"> <stop stop-color="#374CF5"></stop> <stop offset="1" stop-color="#24BDF9"></stop> </linearGradient> <linearGradient id="paint4_linear_102_845" x1="321.382" y1="191.034" x2="376.061" y2="271.422" gradientUnits="userSpaceOnUse"> <stop stop-color="#374CF5"></stop> <stop offset="1" stop-color="#24BDF9"></stop> </linearGradient> <linearGradient id="paint5_linear_102_845" x1="595.281" y1="408.865" x2="654.309" y2="408.865" gradientUnits="userSpaceOnUse"> <stop stop-color="#374CF5"></stop> <stop offset="1" stop-color="#24BDF9"></stop> </linearGradient> <linearGradient id="paint6_linear_102_845" x1="542.371" y1="375.349" x2="647.647" y2="375.349" gradientUnits="userSpaceOnUse"> <stop stop-color="#E9F1FD"></stop> <stop offset="1" stop-color="#BFD2F6"></stop> </linearGradient> <linearGradient id="paint7_linear_102_845" x1="392.654" y1="467.612" x2="451.682" y2="467.612" gradientUnits="userSpaceOnUse"> <stop stop-color="#374CF5"></stop> <stop offset="1" stop-color="#24BDF9"></stop> </linearGradient> <linearGradient id="paint8_linear_102_845" x1="339.744" y1="434.224" x2="445.02" y2="434.224" gradientUnits="userSpaceOnUse"> <stop stop-color="#E9F1FD"></stop> <stop offset="1" stop-color="#BFD2F6"></stop> </linearGradient> <linearGradient id="paint9_linear_102_845" x1="82.6524" y1="177.904" x2="141.68" y2="177.904" gradientUnits="userSpaceOnUse"> <stop stop-color="#374CF5"></stop> <stop offset="1" stop-color="#24BDF9"></stop> </linearGradient> <linearGradient id="paint10_linear_102_845" x1="45.3615" y1="122.96" x2="119.833" y2="165.978" gradientUnits="userSpaceOnUse"> <stop offset="0.2421" stop-color="#5761D7"></stop> <stop offset="0.3923" stop-color="#7A82E5"></stop> <stop offset="0.5463" stop-color="#979CF0"></stop> <stop offset="0.7" stop-color="#ACAFF8"></stop> <stop offset="0.8519" stop-color="#B8BAFD"></stop> <stop offset="1" stop-color="#BCBEFF"></stop> </linearGradient> <linearGradient id="paint11_linear_102_845" x1="29.947" y1="144.376" x2="135.223" y2="144.376" gradientUnits="userSpaceOnUse"> <stop stop-color="#E9F1FD"></stop> <stop offset="1" stop-color="#BFD2F6"></stop> </linearGradient> <linearGradient id="paint12_linear_102_845" x1="82.5105" y1="170.034" x2="82.5105" y2="0.070995" gradientUnits="userSpaceOnUse"> <stop stop-color="#35A3F8"></stop> <stop offset="1" stop-color="#35A3F8" stop-opacity="0"></stop> </linearGradient> <clipPath id="clip0_102_845"> <rect width="648" height="487" fill="white"></rect> </clipPath> </defs> </svg> 